<svg xmlns="http://www.w3.org/2000/svg" width="15.333" height="15.333" viewBox="0 0 15.333 15.333"><defs><style>.a{fill:none;}.b{fill:#fff;}</style></defs><path class="a" d="M0,0H15.333V15.333H0Z"/><path class="b" d="M8.028,5.278a6.242,6.242,0,0,1,5.635,3.514,6.275,6.275,0,0,1-11.27,0A6.242,6.242,0,0,1,8.028,5.278M8.028,4A7.556,7.556,0,0,0,1,8.792a7.55,7.55,0,0,0,14.056,0A7.556,7.556,0,0,0,8.028,4Zm0,3.194a1.6,1.6,0,1,1-1.6,1.6,1.6,1.6,0,0,1,1.6-1.6m0-1.278A2.875,2.875,0,1,0,10.9,8.792,2.879,2.879,0,0,0,8.028,5.917Z" transform="translate(-0.361 -1.444)"/></svg>