<svg xmlns="http://www.w3.org/2000/svg" width="67" height="67" viewBox="0 0 67 67"><defs><style>.a{fill:none;}.b{fill:#a4a4a4;}</style></defs><path class="a" d="M0,0H67V67H0Z"/><path class="b" d="M25.031,32.708a3.49,3.49,0,1,1-3.49-3.49A3.491,3.491,0,0,1,25.031,32.708Zm13.26-3.49a3.49,3.49,0,1,0,3.49,3.49A3.491,3.491,0,0,0,38.292,29.219Zm19.542.7A27.917,27.917,0,1,1,29.917,2,27.927,27.927,0,0,1,57.833,29.917Zm-31.658-22a22.3,22.3,0,0,0,19.1,10.832,23.3,23.3,0,0,0,3.741-.335,22.3,22.3,0,0,0-19.1-10.832A23.3,23.3,0,0,0,26.176,7.918ZM8.756,22.854A22.462,22.462,0,0,0,18.973,10.459,22.462,22.462,0,0,0,8.756,22.854ZM52.25,29.917a22,22,0,0,0-.921-6.253,28.77,28.77,0,0,1-6.058.67,27.916,27.916,0,0,1-21.663-10.3A27.962,27.962,0,0,1,7.583,29.526a1.824,1.824,0,0,1,0,.391,22.333,22.333,0,1,0,44.667,0Z" transform="translate(3.583 3.583)"/></svg>